# xmcd
#
# Track frame offsets: 
#        150
#        20668
#        44450
#        61383
#        84278
#        110068
#        132408
#        153238
#        166510
#        187280
#
# Disc length: 3120 seconds
#
# Revision: 7
# Processed by: cddbd v1.5.2PL0 Copyright (c) Steve Scherf et al.
# Submitted via: ExactAudioCopyFreeDBPlugin 1.0
#
DISCID=820c2e0a
DTITLE=Neil Young - Harvest Moon
DYEAR=1992
DGENRE=West Coast
TTITLE0=Unknown legend
TTITLE1=From Hank to Hendrix
TTITLE2=You and me
TTITLE3=Harvest moon
TTITLE4=War of man
TTITLE5=One of these days
TTITLE6=Such a woman
TTITLE7=Old King
TTITLE8=Dreamin' man
TTITLE9=Natural beauty
EXTD=
EXTT0=
EXTT1=
EXTT2=
EXTT3=
EXTT4=
EXTT5=
EXTT6=
EXTT7=
EXTT8=
EXTT9=
PLAYORDER=
